# RokuSuper Output Ver2.0 for Wavefront Obj

v 0.04167966 8.00002621 0.15611643
v 0.05399259 0.00002621 -7.02800663
v -0.11893372 -7.99997379 0.04019523
v 0.03027284 0.00002621 7.15603412
v 7.13392657 0.00002621 0.12192442
v -7.04966113 0.00002621 0.00610306

vn 0.99994811 -0.01004891 0.00167220
vn 0.99999860 0.00003738 0.00167228
vn 0.99994811 -0.01004891 0.00167220
vn 0.99979589 -0.02013417 0.00167194
vn 0.00000000 -1.00000000 -0.00000000
vn 0.00000000 -1.00000000 -0.00000000
vn 0.00000000 -1.00000000 -0.00000000
vn 0.00000000 -1.00000000 -0.00000000
vn 0.75579785 0.65479446 0.00371780
vn 0.75579785 0.65479446 0.00371780
vn 0.59998755 0.52237590 0.60591943
vn 0.60591942 0.52237593 -0.59998753
vn 0.75579785 0.65479446 0.00371780
vn 0.75579785 0.65479446 0.00371780
vn 0.74084166 -0.67167586 0.00227409
vn 0.74084166 -0.67167586 0.00227409
vn 0.59124811 -0.54212999 0.59709359
vn 0.74084166 -0.67167586 0.00227409
vn 0.74084166 -0.67167586 0.00227409
vn 0.59930621 -0.53727287 -0.59343907
vn -0.74828468 -0.66335294 -0.00573692
vn -0.74828468 -0.66335294 -0.00573692
vn -0.60041114 -0.53482404 0.59453318
vn -0.74832450 0.66333278 -0.00025430
vn -0.74832450 0.66333278 -0.00025430
vn -0.59343908 0.53727284 -0.59930623
vn -0.60482016 0.52489287 0.59889903
vn -0.74832450 0.66333278 -0.00025430
vn -0.74832450 0.66333278 -0.00025430
vn -0.59780929 -0.52739609 -0.60371965
vn -0.74828468 -0.66335294 -0.00573692
vn -0.74828468 -0.66335294 -0.00573692

g ¼h
f 2//1 1//2 4//3 3//4
f 5//5 4//6 6//7 2//8
f 6//9 3//10 2//11
f 4//12 3//13 6//14
f 3//15 5//16 4//17
f 5//18 3//19 2//20
f 5//21 1//22 2//23
f 6//24 1//25 2//26
f 4//27 1//28 6//29
f 4//30 1//31 5//32

