<?xml version="1.0" encoding="UTF-8" standalone="no"?><!-- Generator: Gravit.io --><svg xmlns="http://www.w3.org/2000/svg" xmlns:xlink="http://www.w3.org/1999/xlink" style="isolation:isolate" viewBox="0 0 446.2 374.6" width="446.2pt" height="374.6pt"><defs><clipPath id="_clipPath_q993qAylaDxjDvPPDuHstY6htHcwtWf5"><rect width="446.2" height="374.6"/></clipPath></defs><g clip-path="url(#_clipPath_q993qAylaDxjDvPPDuHstY6htHcwtWf5)"><g><path d=" M 223.608 374.597 C 219.951 374.597 215.771 373.03 212.637 370.417 L 37.094 203.756 C 13.584 180.768 0 150.988 0 119.119 C 0 87.25 13.061 56.948 37.094 34.482 C 85.682 -11.494 164.572 -11.494 213.159 34.482 L 223.086 43.886 L 233.013 34.482 C 281.601 -11.494 360.491 -11.494 409.078 34.482 L 409.078 34.482 C 433.111 56.947 446.172 87.249 446.172 119.119 C 446.172 150.989 433.111 181.29 409.078 203.756 L 234.58 370.417 C 231.445 373.029 227.265 374.597 223.608 374.597 Z  M 125.388 30.825 C 101.355 30.825 77.323 39.707 59.037 56.947 C 41.274 73.665 31.87 95.608 31.87 119.118 C 31.87 142.628 41.797 164.571 59.037 181.289 L 223.608 337.503 L 388.18 181.291 C 405.943 164.573 415.347 142.63 415.347 119.12 C 415.347 95.61 405.42 73.667 388.18 56.949 L 388.18 56.949 C 351.609 21.945 292.049 21.945 254.955 56.949 L 234.057 76.802 C 227.788 82.549 218.384 82.549 212.637 76.802 L 191.739 56.949 C 173.453 39.184 149.42 30.825 125.388 30.825 Z " fill="rgb(255,255,255)"/><path d=" M 399.151 45.454 C 441.992 86.205 441.992 151.511 399.151 192.262 L 378.253 212.115 L 223.608 358.923 L 68.963 212.115 L 48.065 192.262 C 5.224 151.511 5.224 86.205 48.065 45.454 C 90.906 4.703 159.869 4.703 202.71 45.454 L 223.608 65.307 L 244.506 45.454 C 287.347 4.703 356.31 4.703 399.151 45.454 Z " fill="rgb(224,87,77)"/></g></g></svg>